<svg width="39" height="42" viewBox="0 0 39 42" fill="none" xmlns="http://www.w3.org/2000/svg">
<rect width="22.5623" height="17.7454" transform="matrix(0.846548 -0.532312 2.02279e-08 1 19.0486 23.9693)" fill="#696D97"/>
<rect width="22.5623" height="17.7454" transform="matrix(0.846548 0.532312 -2.02279e-08 1 0 11.8303)" fill="#3A3D5B"/>
<rect width="22.5623" height="22.5623" transform="matrix(0.846548 0.532312 -0.846548 0.532312 19.1001 0)" fill="#696D97"/>
<path d="M16.8685 10.6459C14.7642 12.0738 14.0524 14.8616 15.2593 17.0375C16.5281 19.2814 18.7562 20.0294 20.7987 18.8734C23.9243 17.1395 24.079 12.6518 21.0772 10.6459C20.5202 10.2719 19.5608 9.9659 18.9729 9.9659C18.3849 9.9659 17.4255 10.2719 16.8685 10.6459Z" fill="#EAEAFD"/>
<path d="M8.17258 14.5218C5.48024 16.1537 6.62526 20.8455 9.68895 20.8455C11.2672 20.8455 12.7836 19.1795 12.7836 17.4796C12.7836 14.9298 10.215 13.2638 8.17258 14.5218Z" fill="#EAEAFD"/>
<path d="M26.7404 14.5218C24.0481 16.1537 25.1931 20.8455 28.2568 20.8455C29.835 20.8455 31.3514 19.1795 31.3514 17.4796C31.3514 14.9298 28.7829 13.2638 26.7404 14.5218Z" fill="#EAEAFD"/>
<path d="M15.7235 22.6813C13.9905 23.1573 12.2575 23.9733 11.5148 24.6532C10.6173 25.4692 10.3079 26.5911 10.3079 29.141V31.7249H18.9728H27.6378V29.175C27.6378 27.7811 27.4831 26.3192 27.2974 25.8772C26.2452 23.2933 19.7774 21.4914 15.7235 22.6813Z" fill="#EAEAFD"/>
<path d="M7.30609 24.1433C6.59432 24.4153 5.57309 25.0612 5.047 25.6052C4.1805 26.4892 4.11861 26.6931 4.11861 29.141V31.7249H5.97539H7.83217V28.835C7.83217 26.8291 7.98691 25.5712 8.32731 24.8912C8.57489 24.3133 8.76056 23.8033 8.69867 23.7353C8.63678 23.7013 8.01785 23.8713 7.30609 24.1433Z" fill="#EAEAFD"/>
<path d="M29.1852 23.8373C29.2161 23.9733 29.4018 24.4493 29.6494 24.9252C29.9279 25.4692 30.0826 26.8291 30.1135 28.733V31.7249H31.9703H33.8271V29.141C33.8271 26.6931 33.7652 26.4891 32.8987 25.6052C32.0013 24.6872 29.1852 23.3273 29.1852 23.8373Z" fill="#EAEAFD"/>
</svg>
