<svg width="162" height="42" viewBox="0 0 162 42" fill="none" xmlns="http://www.w3.org/2000/svg">
<g clip-path="url(#clip0_4_2)">
<path d="M49.099 29H45.859C44.617 29 43.636 28.649 42.916 27.947C42.214 27.245 41.863 26.264 41.863 25.004V15.635C41.863 14.375 42.214 13.394 42.916 12.692C43.636 11.99 44.617 11.639 45.859 11.639H49.099C50.341 11.639 51.313 11.99 52.015 12.692C52.735 13.394 53.095 14.375 53.095 15.635V16.958C53.095 17.21 52.969 17.336 52.717 17.336H51.502C51.25 17.336 51.124 17.21 51.124 16.958V15.716C51.124 14.15 50.368 13.367 48.856 13.367H46.075C44.581 13.367 43.834 14.15 43.834 15.716V24.923C43.834 26.489 44.581 27.272 46.075 27.272H48.856C50.368 27.272 51.124 26.489 51.124 24.923V23.681C51.124 23.429 51.25 23.303 51.502 23.303H52.717C52.969 23.303 53.095 23.429 53.095 23.681V25.004C53.095 26.264 52.735 27.245 52.015 27.947C51.313 28.649 50.341 29 49.099 29ZM62.5184 29H60.1964C58.9544 29 57.9734 28.649 57.2534 27.947C56.5514 27.245 56.2004 26.264 56.2004 25.004V19.226C56.2004 17.966 56.5514 16.985 57.2534 16.283C57.9734 15.581 58.9544 15.23 60.1964 15.23H62.5184C63.7604 15.23 64.7324 15.581 65.4344 16.283C66.1544 16.985 66.5144 17.966 66.5144 19.226V25.004C66.5144 26.264 66.1544 27.245 65.4344 27.947C64.7324 28.649 63.7604 29 62.5184 29ZM60.4124 27.272H62.3024C63.8144 27.272 64.5704 26.498 64.5704 24.95V19.28C64.5704 17.732 63.8144 16.958 62.3024 16.958H60.4124C58.9004 16.958 58.1444 17.732 58.1444 19.28V24.95C58.1444 26.498 58.9004 27.272 60.4124 27.272ZM71.6984 29H70.4834C70.2314 29 70.1054 28.874 70.1054 28.622V10.397C70.1054 10.145 70.2314 10.019 70.4834 10.019H71.6984C71.9504 10.019 72.0764 10.145 72.0764 10.397V28.622C72.0764 28.874 71.9504 29 71.6984 29ZM77.6574 29H76.4424C76.1904 29 76.0644 28.874 76.0644 28.622V10.397C76.0644 10.145 76.1904 10.019 76.4424 10.019H77.6574C77.9094 10.019 78.0354 10.145 78.0354 10.397V28.622C78.0354 28.874 77.9094 29 77.6574 29ZM87.0184 29H85.6144C84.3724 29 83.3914 28.649 82.6714 27.947C81.9694 27.245 81.6184 26.264 81.6184 25.004V19.226C81.6184 17.966 81.9694 16.985 82.6714 16.283C83.3914 15.581 84.3724 15.23 85.6144 15.23H91.4734C91.7254 15.23 91.8514 15.356 91.8514 15.608V28.622C91.8514 28.874 91.7254 29 91.4734 29H90.2584C90.0064 29 89.8804 28.874 89.8804 28.622V27.569H89.7724C89.3224 28.523 88.4044 29 87.0184 29ZM89.8804 24.788V17.201C89.8804 17.039 89.7904 16.958 89.6104 16.958H85.8304C84.3364 16.958 83.5894 17.741 83.5894 19.307V24.923C83.5894 26.489 84.3364 27.272 85.8304 27.272H87.3694C88.1794 27.272 88.8004 27.056 89.2324 26.624C89.6644 26.192 89.8804 25.58 89.8804 24.788ZM97.814 27.272H101.648C103.178 27.272 103.943 26.489 103.943 24.923V19.145C103.943 17.579 103.178 16.796 101.648 16.796H100.055C99.245 16.796 98.624 17.012 98.192 17.444C97.76 17.876 97.544 18.479 97.544 19.253V27.029C97.544 27.191 97.634 27.272 97.814 27.272ZM95.573 28.622V10.397C95.573 10.145 95.699 10.019 95.951 10.019H97.166C97.418 10.019 97.544 10.145 97.544 10.397V16.499H97.652C98.102 15.545 99.02 15.068 100.406 15.068H101.918C103.142 15.068 104.105 15.419 104.807 16.121C105.527 16.823 105.887 17.795 105.887 19.037V25.004C105.887 26.264 105.527 27.245 104.807 27.947C104.105 28.649 103.142 29 101.918 29H95.951C95.699 29 95.573 28.874 95.573 28.622ZM116.573 29H113.333C112.091 29 111.11 28.649 110.39 27.947C109.688 27.245 109.337 26.264 109.337 25.004V15.635C109.337 14.375 109.688 13.394 110.39 12.692C111.11 11.99 112.091 11.639 113.333 11.639H116.573C117.815 11.639 118.787 11.99 119.489 12.692C120.209 13.394 120.569 14.375 120.569 15.635V16.958C120.569 17.21 120.443 17.336 120.191 17.336H118.976C118.724 17.336 118.598 17.21 118.598 16.958V15.716C118.598 14.15 117.842 13.367 116.33 13.367H113.549C112.055 13.367 111.308 14.15 111.308 15.716V24.923C111.308 26.489 112.055 27.272 113.549 27.272H116.33C117.842 27.272 118.598 26.489 118.598 24.923V23.681C118.598 23.429 118.724 23.303 118.976 23.303H120.191C120.443 23.303 120.569 23.429 120.569 23.681V25.004C120.569 26.264 120.209 27.245 119.489 27.947C118.787 28.649 117.815 29 116.573 29ZM129.209 29H127.697C126.473 29 125.519 28.649 124.835 27.947C124.151 27.245 123.809 26.264 123.809 25.004V15.608C123.809 15.356 123.935 15.23 124.187 15.23H125.402C125.654 15.23 125.78 15.356 125.78 15.608V24.923C125.78 26.489 126.527 27.272 128.021 27.272H129.56C130.37 27.272 130.991 27.056 131.423 26.624C131.855 26.192 132.071 25.58 132.071 24.788V15.608C132.071 15.356 132.197 15.23 132.449 15.23H133.664C133.916 15.23 134.042 15.356 134.042 15.608V28.622C134.042 28.874 133.916 29 133.664 29H132.449C132.197 29 132.071 28.874 132.071 28.622V27.569H131.963C131.513 28.523 130.595 29 129.209 29ZM140.001 27.272H143.835C145.365 27.272 146.13 26.489 146.13 24.923V19.145C146.13 17.579 145.365 16.796 143.835 16.796H142.242C141.432 16.796 140.811 17.012 140.379 17.444C139.947 17.876 139.731 18.479 139.731 19.253V27.029C139.731 27.191 139.821 27.272 140.001 27.272ZM137.76 28.622V10.397C137.76 10.145 137.886 10.019 138.138 10.019H139.353C139.605 10.019 139.731 10.145 139.731 10.397V16.499H139.839C140.289 15.545 141.207 15.068 142.593 15.068H144.105C145.329 15.068 146.292 15.419 146.994 16.121C147.714 16.823 148.074 17.795 148.074 19.037V25.004C148.074 26.264 147.714 27.245 146.994 27.947C146.292 28.649 145.329 29 144.105 29H138.138C137.886 29 137.76 28.874 137.76 28.622ZM160.974 29H155.25C154.008 29 153.027 28.649 152.307 27.947C151.605 27.245 151.254 26.264 151.254 25.004V19.226C151.254 17.966 151.605 16.985 152.307 16.283C153.027 15.581 154.008 15.23 155.25 15.23H157.518C158.76 15.23 159.732 15.581 160.434 16.283C161.136 16.985 161.487 17.966 161.487 19.226V22.655C161.487 22.925 161.361 23.06 161.109 23.06H153.468C153.288 23.06 153.198 23.141 153.198 23.303V24.95C153.198 26.516 153.954 27.299 155.466 27.299H160.974C161.226 27.299 161.352 27.425 161.352 27.677V28.649C161.352 28.883 161.226 29 160.974 29ZM153.468 21.629H159.3C159.48 21.629 159.57 21.539 159.57 21.359V19.28C159.57 17.732 158.814 16.958 157.302 16.958H155.466C153.954 16.958 153.198 17.732 153.198 19.28V21.359C153.198 21.539 153.288 21.629 153.468 21.629Z" fill="#EAEAFD"/>
<rect width="22.5623" height="17.7454" transform="matrix(0.846548 -0.532312 2.02279e-08 1 19.0486 23.9693)" fill="#696D97"/>
<rect width="22.5623" height="17.7454" transform="matrix(0.846548 0.532312 -2.02279e-08 1 0 11.8303)" fill="#3A3D5B"/>
<rect width="22.5623" height="22.5623" transform="matrix(0.846548 0.532312 -0.846548 0.532312 19.1001 0)" fill="#696D97"/>
<path d="M16.8685 10.6459C14.7642 12.0738 14.0524 14.8616 15.2593 17.0375C16.5281 19.2814 18.7562 20.0294 20.7987 18.8734C23.9243 17.1395 24.079 12.6518 21.0772 10.6459C20.5202 10.2719 19.5608 9.9659 18.9729 9.9659C18.3849 9.9659 17.4255 10.2719 16.8685 10.6459Z" fill="#EAEAFD"/>
<path d="M8.17258 14.5218C5.48024 16.1537 6.62526 20.8455 9.68895 20.8455C11.2672 20.8455 12.7836 19.1795 12.7836 17.4796C12.7836 14.9298 10.215 13.2638 8.17258 14.5218Z" fill="#EAEAFD"/>
<path d="M26.7404 14.5218C24.0481 16.1537 25.1931 20.8455 28.2568 20.8455C29.835 20.8455 31.3514 19.1795 31.3514 17.4796C31.3514 14.9298 28.7829 13.2638 26.7404 14.5218Z" fill="#EAEAFD"/>
<path d="M15.7235 22.6813C13.9905 23.1573 12.2575 23.9733 11.5148 24.6532C10.6173 25.4692 10.3079 26.5911 10.3079 29.141V31.7249H18.9728H27.6378V29.175C27.6378 27.7811 27.4831 26.3192 27.2974 25.8772C26.2452 23.2933 19.7774 21.4914 15.7235 22.6813Z" fill="#EAEAFD"/>
<path d="M7.30609 24.1433C6.59432 24.4153 5.57309 25.0612 5.047 25.6052C4.1805 26.4892 4.11861 26.6931 4.11861 29.141V31.7249H5.97539H7.83217V28.835C7.83217 26.8291 7.98691 25.5712 8.32731 24.8912C8.57489 24.3133 8.76056 23.8033 8.69867 23.7353C8.63678 23.7013 8.01785 23.8713 7.30609 24.1433Z" fill="#EAEAFD"/>
<path d="M29.1852 23.8373C29.2161 23.9733 29.4018 24.4493 29.6494 24.9252C29.9279 25.4692 30.0826 26.8291 30.1135 28.733V31.7249H31.9703H33.8271V29.141C33.8271 26.6931 33.7652 26.4891 32.8987 25.6052C32.0013 24.6872 29.1852 23.3273 29.1852 23.8373Z" fill="#EAEAFD"/>
</g>
<defs>
<clipPath id="clip0_4_2">
<rect width="162" height="42" fill="white"/>
</clipPath>
</defs>
</svg>
